<svg width="200" height="200" viewBox="0 0 200 200" fill="none" xmlns="http://www.w3.org/2000/svg">
  <path d="M100 180c44.183 0 80-35.817 80-80s-35.817-80-80-80-80 35.817-80 80 35.817 80 80 80z" fill="#38bdf8" fill-opacity=".2"/>
  <path d="M143.268 95.084c0 29.524-22.744 44.286-43.929 44.286-21.185 0-43.929-14.762-43.929-44.286 0-29.524 18.452-43.214 43.929-43.214 25.477 0 43.929 13.69 43.929 43.214z" stroke="#38bdf8" stroke-width="8"/>
  <path d="M143.268 95.084c0 15.526-9.971 27.53-21.965 34.868-12.018 7.355-26.428 9.418-38.018 9.418" stroke="#38bdf8" stroke-width="8" stroke-linecap="round"/>
  <circle cx="146" cy="72" r="14" fill="#38bdf8"/>
</svg>
